<svg width="326" height="56" viewBox="0 0 326 56" fill="none" xmlns="http://www.w3.org/2000/svg">
<path d="M50.2202 45.0393C53.3959 40.8983 55.3511 35.9521 55.8652 30.759C56.3794 25.5659 55.432 20.3324 53.1301 15.649C50.8281 10.9657 47.2631 7.01882 42.8373 4.25378C38.4115 1.48873 33.3011 0.0155452 28.0826 0.000422741C22.8641 -0.0146997 17.7452 1.42885 13.3035 4.16819C8.86176 6.90754 5.27396 10.8337 2.94488 15.5036C0.615796 20.1735 -0.361873 25.4015 0.122177 30.5975C0.606227 35.7935 2.53273 40.7509 5.68433 44.9102L16.0473 37.0581C14.3591 34.8301 13.3272 32.1747 13.0679 29.3915C12.8086 26.6082 13.3323 23.8079 14.5799 21.3064C15.8275 18.805 17.7493 16.702 20.1285 15.2346C22.5077 13.7673 25.2496 12.9941 28.0449 13.0022C30.8402 13.0103 33.5776 13.7994 35.9483 15.2805C38.319 16.7616 40.2286 18.8757 41.4616 21.3843C42.6947 23.893 43.2021 26.6963 42.9267 29.478C42.6513 32.2597 41.604 34.9091 39.903 37.1272L50.2202 45.0393Z" fill="#030205"/>
<path d="M44.8419 48.0908C30.8341 37.8054 16.4509 43.6956 10.7868 48.0779C10.6879 48.1544 10.6987 48.3033 10.8005 48.3761C25.992 59.2525 39.7079 53.0115 44.8631 48.3782C44.9511 48.2991 44.9373 48.1609 44.8419 48.0908Z" fill="#144EAC"/>
<path d="M75.84 41H67.68C67.3867 41 67.1333 40.8933 66.92 40.68C66.7067 40.4667 66.6 40.2133 66.6 39.92V14.08C66.6 13.7867 66.7067 13.5333 66.92 13.32C67.1333 13.1067 67.3867 13 67.68 13H75.84C76.1333 13 76.3867 13.1067 76.6 13.32C76.8133 13.5333 76.92 13.7867 76.92 14.08V39.92C76.92 40.2133 76.8133 40.4667 76.6 40.68C76.3867 40.8933 76.1333 41 75.84 41ZM105.068 28.88V39.92C105.068 40.2133 104.961 40.4667 104.748 40.68C104.534 40.8933 104.281 41 103.988 41H96.3478C96.0545 41 95.8011 40.8933 95.5878 40.68C95.3745 40.4667 95.2678 40.2133 95.2678 39.92V29.16C95.2678 27.6933 94.6011 26.96 93.2678 26.96C91.9345 26.96 91.2678 27.6933 91.2678 29.16V39.92C91.2678 40.2133 91.1611 40.4667 90.9478 40.68C90.7345 40.8933 90.4811 41 90.1878 41H82.5878C82.2945 41 82.0411 40.8933 81.8278 40.68C81.6145 40.4667 81.5078 40.2133 81.5078 39.92V21.28C81.5078 20.9867 81.6145 20.7333 81.8278 20.52C82.0411 20.3067 82.2945 20.2 82.5878 20.2H89.5878C89.8811 20.2 90.1345 20.3067 90.3478 20.52C90.5611 20.7333 90.6678 20.9867 90.6678 21.28V22.6C91.3611 21.7733 92.2945 21.1067 93.4678 20.6C94.6678 20.0667 95.9478 19.8 97.3078 19.8C99.4945 19.8 101.334 20.5733 102.828 22.12C104.321 23.64 105.068 25.8933 105.068 28.88ZM122.892 41H116.492C115.932 41 115.492 40.6667 115.172 40L107.492 21.48C107.465 21.4 107.452 21.2667 107.452 21.08C107.452 20.8933 107.545 20.7067 107.732 20.52C107.918 20.3333 108.145 20.24 108.412 20.24H115.172C115.812 20.24 116.252 20.56 116.492 21.2L119.692 30.48L122.892 21.16C123.132 20.52 123.572 20.2 124.212 20.2H130.972C131.238 20.2 131.465 20.2933 131.652 20.48C131.838 20.6667 131.932 20.8533 131.932 21.04C131.932 21.2267 131.918 21.36 131.892 21.44L124.212 40C123.892 40.6667 123.452 41 122.892 41ZM133.916 31.96V29.24C133.916 26.2 134.996 23.8667 137.156 22.24C139.316 20.6133 142.102 19.8 145.516 19.8C148.929 19.8 151.716 20.6133 153.876 22.24C156.036 23.8667 157.116 26.2 157.116 29.24V31.96C157.116 35.0267 156.076 37.3733 153.996 39C151.916 40.6 149.089 41.4 145.516 41.4C141.942 41.4 139.116 40.6 137.036 39C134.956 37.3733 133.916 35.0267 133.916 31.96ZM147.316 32.28V28.92C147.316 27.9067 147.182 27.2 146.916 26.8C146.649 26.4 146.182 26.2 145.516 26.2C144.849 26.2 144.382 26.4 144.116 26.8C143.849 27.2 143.716 27.9067 143.716 28.92V32.28C143.716 33.3467 143.849 34.0667 144.116 34.44C144.382 34.8133 144.849 35 145.516 35C146.182 35 146.649 34.8 146.916 34.4C147.182 34 147.316 33.2933 147.316 32.28ZM168.771 41H161.611C161.318 41 161.065 40.8933 160.851 40.68C160.638 40.4667 160.531 40.2133 160.531 39.92V21.28C160.531 20.9867 160.638 20.7333 160.851 20.52C161.065 20.3067 161.318 20.2 161.611 20.2H168.771C169.065 20.2 169.318 20.3067 169.531 20.52C169.745 20.7333 169.851 20.9867 169.851 21.28V39.92C169.851 40.2133 169.745 40.4667 169.531 40.68C169.318 40.8933 169.065 41 168.771 41ZM169.651 12.48V17.32C169.651 17.6133 169.545 17.8667 169.331 18.08C169.118 18.2933 168.865 18.4 168.571 18.4H161.811C161.518 18.4 161.265 18.2933 161.051 18.08C160.838 17.8667 160.731 17.6133 160.731 17.32V12.48C160.731 12.1867 160.838 11.9333 161.051 11.72C161.265 11.5067 161.518 11.4 161.811 11.4H168.571C168.865 11.4 169.118 11.5067 169.331 11.72C169.545 11.9333 169.651 12.1867 169.651 12.48ZM183.052 29.2V32C183.052 32.9067 183.172 33.56 183.412 33.96C183.652 34.36 184.025 34.56 184.532 34.56C185.038 34.56 185.385 34.48 185.572 34.32C185.758 34.1333 185.945 33.8 186.132 33.32C186.345 32.8133 186.732 32.56 187.292 32.56H195.092C195.385 32.56 195.638 32.6667 195.852 32.88C196.065 33.0933 196.172 33.3733 196.172 33.72C196.172 34.0667 196.052 34.5333 195.812 35.12C195.572 35.7067 195.158 36.3733 194.572 37.12C193.985 37.8667 193.265 38.56 192.412 39.2C191.558 39.8133 190.438 40.3333 189.052 40.76C187.665 41.1867 186.132 41.4 184.452 41.4C181.118 41.4 178.412 40.5333 176.332 38.8C174.278 37.04 173.252 34.6133 173.252 31.52V29.68C173.252 26.5867 174.278 24.1733 176.332 22.44C178.412 20.68 181.118 19.8 184.452 19.8C186.425 19.8 188.212 20.1067 189.812 20.72C191.412 21.3067 192.638 22.04 193.492 22.92C194.372 23.7733 195.038 24.6133 195.492 25.44C195.945 26.2667 196.172 26.9067 196.172 27.36C196.172 27.7867 196.065 28.1067 195.852 28.32C195.638 28.5333 195.385 28.64 195.092 28.64H187.292C186.785 28.64 186.398 28.3733 186.132 27.84C185.758 27.04 185.265 26.64 184.652 26.64C183.585 26.64 183.052 27.4933 183.052 29.2ZM220.479 32.96H208.559V33.16C208.559 34.7867 209.079 35.6 210.119 35.6C210.413 35.6 210.773 35.3867 211.199 34.96C211.626 34.5333 212.093 34.32 212.599 34.32H220.159C220.746 34.32 221.039 34.6133 221.039 35.2C221.039 36.5067 220.053 37.8667 218.079 39.28C216.133 40.6933 213.479 41.4 210.119 41.4C206.786 41.4 204.053 40.5333 201.919 38.8C199.813 37.04 198.759 34.6267 198.759 31.56V29.64C198.759 26.7333 199.839 24.3733 201.999 22.56C204.159 20.72 206.986 19.8 210.479 19.8C213.999 19.8 216.719 20.8267 218.639 22.88C220.586 24.9333 221.559 27.5333 221.559 30.68V31.88C221.559 32.1733 221.453 32.4267 221.239 32.64C221.026 32.8533 220.773 32.96 220.479 32.96ZM211.759 27.8C211.759 26.2 211.226 25.4 210.159 25.4C209.093 25.4 208.559 26.2 208.559 27.8V27.96H211.759V27.8ZM226.625 13H238.545C242.385 13 245.385 13.8267 247.545 15.48C249.705 17.1333 250.785 19.5733 250.785 22.8C250.785 26.0267 249.705 28.4133 247.545 29.96C245.412 31.5067 242.412 32.28 238.545 32.28H235.945V39.92C235.945 40.2133 235.839 40.4667 235.625 40.68C235.412 40.8933 235.159 41 234.865 41H226.625C226.332 41 226.079 40.8933 225.865 40.68C225.652 40.4667 225.545 40.2133 225.545 39.92V14.08C225.545 13.7867 225.652 13.5333 225.865 13.32C226.079 13.1067 226.332 13 226.625 13ZM235.745 20.44V24.88H238.545C239.025 24.88 239.452 24.7067 239.825 24.36C240.199 23.9867 240.385 23.4667 240.385 22.8C240.385 22.1333 240.239 21.5733 239.945 21.12C239.652 20.6667 239.185 20.44 238.545 20.44H235.745ZM262.209 41H255.049C254.755 41 254.502 40.8933 254.289 40.68C254.075 40.4667 253.969 40.2133 253.969 39.92V21.28C253.969 20.9867 254.075 20.7333 254.289 20.52C254.502 20.3067 254.755 20.2 255.049 20.2H262.209C262.502 20.2 262.755 20.3067 262.969 20.52C263.182 20.7333 263.289 20.9867 263.289 21.28V39.92C263.289 40.2133 263.182 40.4667 262.969 40.68C262.755 40.8933 262.502 41 262.209 41ZM263.089 12.48V17.32C263.089 17.6133 262.982 17.8667 262.769 18.08C262.555 18.2933 262.302 18.4 262.009 18.4H255.249C254.955 18.4 254.702 18.2933 254.489 18.08C254.275 17.8667 254.169 17.6133 254.169 17.32V12.48C254.169 12.1867 254.275 11.9333 254.489 11.72C254.702 11.5067 254.955 11.4 255.249 11.4H262.009C262.302 11.4 262.555 11.5067 262.769 11.72C262.982 11.9333 263.089 12.1867 263.089 12.48ZM275.529 41H268.369C268.076 41 267.822 40.8933 267.609 40.68C267.396 40.4667 267.289 40.2133 267.289 39.92V13.68C267.289 13.3867 267.396 13.1333 267.609 12.92C267.822 12.7067 268.076 12.6 268.369 12.6H275.529C275.822 12.6 276.076 12.7067 276.289 12.92C276.502 13.1333 276.609 13.3867 276.609 13.68V39.92C276.609 40.2133 276.502 40.4667 276.289 40.68C276.076 40.8933 275.822 41 275.529 41ZM280.009 31.96V29.24C280.009 26.2 281.089 23.8667 283.249 22.24C285.409 20.6133 288.196 19.8 291.609 19.8C295.023 19.8 297.809 20.6133 299.969 22.24C302.129 23.8667 303.209 26.2 303.209 29.24V31.96C303.209 35.0267 302.169 37.3733 300.089 39C298.009 40.6 295.183 41.4 291.609 41.4C288.036 41.4 285.209 40.6 283.129 39C281.049 37.3733 280.009 35.0267 280.009 31.96ZM293.409 32.28V28.92C293.409 27.9067 293.276 27.2 293.009 26.8C292.743 26.4 292.276 26.2 291.609 26.2C290.943 26.2 290.476 26.4 290.209 26.8C289.943 27.2 289.809 27.9067 289.809 28.92V32.28C289.809 33.3467 289.943 34.0667 290.209 34.44C290.476 34.8133 290.943 35 291.609 35C292.276 35 292.743 34.8 293.009 34.4C293.276 34 293.409 33.2933 293.409 32.28ZM318.625 27.2V31.6C318.625 32.9333 319.198 33.6 320.345 33.6H323.985C324.278 33.6 324.532 33.7067 324.745 33.92C324.958 34.1333 325.065 34.3867 325.065 34.68V39.92C325.065 40.2133 324.958 40.4667 324.745 40.68C324.532 40.8933 324.278 41 323.985 41H319.465C312.798 41 309.465 38.1333 309.465 32.4V27.2H306.305C306.012 27.2 305.758 27.0933 305.545 26.88C305.332 26.6667 305.225 26.4133 305.225 26.12V21.28C305.225 20.9867 305.332 20.7333 305.545 20.52C305.758 20.3067 306.012 20.2 306.305 20.2H309.465V13.68C309.465 13.3867 309.572 13.1333 309.785 12.92C309.998 12.7067 310.252 12.6 310.545 12.6H317.545C317.838 12.6 318.092 12.7067 318.305 12.92C318.518 13.1333 318.625 13.3867 318.625 13.68V20.2H323.665C323.958 20.2 324.212 20.3067 324.425 20.52C324.638 20.7333 324.745 20.9867 324.745 21.28V26.12C324.745 26.4133 324.638 26.6667 324.425 26.88C324.212 27.0933 323.958 27.2 323.665 27.2H318.625Z" fill="#030205"/>
</svg>
